<svg id="fi_10276823" enable-background="new 0 0 512 512" height="512" viewBox="0 0 512 512" width="512" xmlns="http://www.w3.org/2000/svg" xmlns:xlink="http://www.w3.org/1999/xlink"><linearGradient id="SVGID_1_" gradientUnits="userSpaceOnUse" x1="256" x2="256" y1="41.018" y2="471"><stop offset="0" stop-color="#f704fe"></stop><stop offset="1" stop-color="#24bce3"></stop></linearGradient><path d="m132 194.7c-.1 0-.3 0-.4 0-1.3-.1-2.5-.7-3.3-1.7l-21.8-25.7c-1.7-2.1-1.5-5.1.6-6.9 2.1-1.7 5.1-1.5 6.9.6l18.6 22 21.6-18.3c2.1-1.7 5.1-1.5 6.9.6 1.7 2.1 1.5 5.1-.6 6.9l-25.3 21.5c-.9.6-2.1 1-3.2 1zm0 0c-2.7 0-4.9-2.2-4.9-4.9 0-30.1 9.5-57.8 26.9-77.9 18.4-21.4 43.7-32.6 73.1-32.6 2.7 0 4.9 2.2 4.9 4.9s-2.2 4.9-4.9 4.9c-53.1 0-90.2 41.4-90.2 100.8 0 2.6-2.2 4.8-4.9 4.8zm269.8 158c-1.4 0-2.8-.6-3.7-1.7l-18.6-22-21.6 18.3c-2.1 1.7-5.1 1.5-6.9-.6-1.7-2.1-1.5-5.1.6-6.9l25.3-21.5c1-.8 2.3-1.2 3.6-1.1s2.5.7 3.3 1.7l21.8 25.7c1.7 2.1 1.5 5.1-.6 6.9-1 .9-2.1 1.2-3.2 1.2zm-116.9 80c-2.7 0-4.9-2.2-4.9-4.9s2.2-4.9 4.9-4.9c53.1 0 90.2-41.4 90.2-100.8 0-2.7 2.2-4.9 4.9-4.9s4.9 2.2 4.9 4.9c0 30.1-9.5 57.8-26.9 77.9-18.4 21.4-43.6 32.7-73.1 32.7zm-61.5 38.3h-160.6c-5.9 0-10.7-4.8-10.7-10.8v-229.8c0-5.9 4.8-10.7 10.7-10.7h132.8c2.7 0 4.9 2.2 4.9 4.9s-2.2 4.9-4.9 4.9h-132.8c-.5 0-1 .4-1 1v229.9c0 .5.4 1 1 1h160.6c.5 0 1-.4 1-1v-202.2c0-2.7 2.2-4.9 4.9-4.9s4.9 2.2 4.9 4.9v202.1c-.1 5.9-4.9 10.7-10.8 10.7zm-80.3-32.5h-58.1c-2.7 0-4.9-2.2-4.9-4.9s2.2-4.9 4.9-4.9h58.1c2.7 0 4.9 2.2 4.9 4.9s-2.2 4.9-4.9 4.9zm58.2-35.8h-116.3c-2.7 0-4.9-2.2-4.9-4.9s2.2-4.9 4.9-4.9h116.3c2.7 0 4.9 2.2 4.9 4.9s-2.2 4.9-4.9 4.9zm0-35.7h-116.3c-2.7 0-4.9-2.2-4.9-4.9s2.2-4.9 4.9-4.9h116.3c2.7 0 4.9 2.2 4.9 4.9s-2.2 4.9-4.9 4.9zm0-35.7h-116.3c-2.7 0-4.9-2.2-4.9-4.9s2.2-4.9 4.9-4.9h116.3c2.7 0 4.9 2.2 4.9 4.9s-2.2 4.9-4.9 4.9zm0-35.6h-116.3c-2.7 0-4.9-2.2-4.9-4.9s2.2-4.9 4.9-4.9h116.3c2.7 0 4.9 2.2 4.9 4.9s-2.2 4.9-4.9 4.9zm27.9-32.7h-33.6c-2.7 0-4.9-2.2-4.9-4.9v-33.6c0-2 1.2-3.8 3-4.5 1.8-.8 3.9-.3 5.3 1.1l33.6 33.6c1.4 1.4 1.8 3.5 1.1 5.3s-2.5 3-4.5 3zm-28.7-9.7h16.9l-16.9-16.9zm248.6 39.1h-160.5c-5.9 0-10.8-4.8-10.8-10.7v-229.9c0-5.9 4.8-10.7 10.8-10.7h132.8c2.7 0 4.9 2.2 4.9 4.9s-2.2 4.9-4.9 4.9h-132.8c-.5 0-1 .4-1 1v229.9c0 .5.4 1 1 1h160.5c.5 0 1-.4 1-1v-202.3c0-2.7 2.2-4.9 4.9-4.9s4.9 2.2 4.9 4.9v202.1c0 5.9-4.9 10.8-10.8 10.8zm-80.2-32.7h-58.1c-2.7 0-4.9-2.2-4.9-4.9s2.2-4.9 4.9-4.9h58.1c2.7 0 4.9 2.2 4.9 4.9s-2.2 4.9-4.9 4.9zm58.1-35.7h-116.3c-2.7 0-4.9-2.2-4.9-4.9s2.2-4.9 4.9-4.9h116.3c2.7 0 4.9 2.2 4.9 4.9s-2.2 4.9-4.9 4.9zm0-35.6h-116.3c-2.7 0-4.9-2.2-4.9-4.9s2.2-4.9 4.9-4.9h116.3c2.7 0 4.9 2.2 4.9 4.9s-2.2 4.9-4.9 4.9zm0-35.7h-116.3c-2.7 0-4.9-2.2-4.9-4.9s2.2-4.9 4.9-4.9h116.3c2.7 0 4.9 2.2 4.9 4.9s-2.2 4.9-4.9 4.9zm0-35.8h-116.3c-2.7 0-4.9-2.2-4.9-4.9s2.2-4.9 4.9-4.9h116.3c2.7 0 4.9 2.2 4.9 4.9s-2.2 4.9-4.9 4.9zm28-32.5h-33.5c-2.7 0-4.9-2.2-4.9-4.9v-33.6c0-2 1.2-3.8 3-4.5 1.8-.8 3.9-.3 5.3 1.1l33.5 33.6c1.4 1.4 1.8 3.5 1.1 5.3-.8 1.8-2.6 3-4.5 3zm-28.7-9.8h16.9l-16.9-16.9z" fill="url(#SVGID_1_)"></path></svg>