<svg id="fi_11591278" enable-background="new 0 0 512 512" viewBox="0 0 512 512" xmlns="http://www.w3.org/2000/svg" xmlns:xlink="http://www.w3.org/1999/xlink"><linearGradient id="SVGID_1_" gradientUnits="userSpaceOnUse" x1="0" x2="512" y1="256" y2="256"><stop offset="0" stop-color="#00f2fe"></stop><stop offset=".0208" stop-color="#03effe"></stop><stop offset=".2931" stop-color="#24d2fe"></stop><stop offset=".5538" stop-color="#3cbdfe"></stop><stop offset=".7956" stop-color="#4ab0fe"></stop><stop offset="1" stop-color="#4facfe"></stop></linearGradient><g><path d="m171.116 276.94h-108.394c-34.585 0-62.722 28.137-62.722 62.721v109.617c0 34.585 28.137 62.722 62.722 62.722h108.395c34.584 0 62.721-28.137 62.721-62.722v-109.617c-.001-34.584-28.138-62.721-62.722-62.721zm22.721 172.338c0 12.528-10.192 22.722-22.721 22.722h-108.394c-12.529 0-22.722-10.193-22.722-22.722v-109.617c0-12.528 10.193-22.721 22.722-22.721h108.395c12.528 0 22.721 10.192 22.721 22.721v109.617zm255.441-449.278h-108.394c-34.584 0-62.721 28.137-62.721 62.722v109.617c0 34.584 28.137 62.721 62.721 62.721h108.395c34.585 0 62.722-28.137 62.722-62.721v-109.617c-.001-34.585-28.138-62.722-62.723-62.722zm22.722 172.339c0 12.528-10.193 22.721-22.722 22.721h-108.394c-12.528 0-22.721-10.192-22.721-22.721v-109.617c0-12.528 10.192-22.722 22.721-22.722h108.395c12.528 0 22.721 10.193 22.721 22.722zm-300.885-172.339h-108.393c-34.585 0-62.722 28.137-62.722 62.722v109.616c0 34.585 28.137 62.723 62.722 62.723h108.394c34.585 0 62.723-28.138 62.723-62.723v-109.616c-.001-34.585-28.139-62.722-62.724-62.722zm22.723 172.338c0 12.529-10.193 22.723-22.723 22.723h-108.393c-12.53 0-22.722-10.194-22.722-22.723v-109.616c0-12.529 10.192-22.722 22.722-22.722h108.394c12.529 0 22.723 10.193 22.723 22.722v109.616zm318.162 221.52v1.224c0 8.89-1.005 17.755-2.985 26.35-2.481 10.764-13.212 17.478-23.981 14.997-10.764-2.481-17.478-13.218-14.997-23.981 1.304-5.652 1.964-11.495 1.964-17.365v-1.224c0-42.413-34.505-76.919-76.918-76.919-42.414 0-76.92 34.506-76.92 76.919v1.224c0 42.413 34.506 76.918 76.919 76.918 6.7 0 13.345-.859 19.747-2.554 10.677-2.822 21.626 3.541 24.451 14.219s-3.541 21.625-14.219 24.451c-9.74 2.577-19.826 3.884-29.979 3.884-64.47 0-116.92-52.449-116.92-116.918v-1.224c0-64.47 52.449-116.919 116.919-116.919s116.919 52.449 116.919 116.918z" fill="url(#SVGID_1_)"></path></g><g></g><g></g><g></g><g></g><g></g><g></g><g></g><g></g><g></g><g></g><g></g><g></g><g></g><g></g><g></g></svg>